<?xml version="1.0" encoding="utf-8"?>
<svg xmlns="http://www.w3.org/2000/svg" xmlns:xlink="http://www.w3.org/1999/xlink">
	<symbol id="delete" viewBox="0 0 511.992 511.992" xmlns="http://www.w3.org/2000/svg">
		<path d="m415.402344 495.421875-159.40625-159.410156-159.40625 159.410156c-22.097656 22.09375-57.921875 22.09375-80.019532 0-22.09375-22.097656-22.09375-57.921875 0-80.019531l159.410157-159.40625-159.410157-159.40625c-22.09375-22.097656-22.09375-57.921875 0-80.019532 22.097657-22.09375 57.921876-22.09375 80.019532 0l159.40625 159.410157 159.40625-159.410157c22.097656-22.09375 57.921875-22.09375 80.019531 0 22.09375 22.097657 22.09375 57.921876 0 80.019532l-159.410156 159.40625 159.410156 159.40625c22.09375 22.097656 22.09375 57.921875 0 80.019531-22.097656 22.09375-57.921875 22.09375-80.019531 0zm0 0" />
	</symbol>
	<!-- <symbol id="edit" viewBox="0 -1 401.52289 401" xmlns="http://www.w3.org/2000/svg"><path d="m370.589844 250.972656c-5.523438 0-10 4.476563-10 10v88.789063c-.019532 16.5625-13.4375 29.984375-30 30h-280.589844c-16.5625-.015625-29.980469-13.4375-30-30v-260.589844c.019531-16.558594 13.4375-29.980469 30-30h88.789062c5.523438 0 10-4.476563 10-10 0-5.519531-4.476562-10-10-10h-88.789062c-27.601562.03125-49.96875 22.398437-50 50v260.59375c.03125 27.601563 22.398438 49.96875 50 50h280.589844c27.601562-.03125 49.96875-22.398437 50-50v-88.792969c0-5.523437-4.476563-10-10-10zm0 0"/><path d="m376.628906 13.441406c-17.574218-17.574218-46.066406-17.574218-63.640625 0l-178.40625 178.40625c-1.222656 1.222656-2.105469 2.738282-2.566406 4.402344l-23.460937 84.699219c-.964844 3.472656.015624 7.191406 2.5625 9.742187 2.550781 2.546875 6.269531 3.527344 9.742187 2.566406l84.699219-23.464843c1.664062-.460938 3.179687-1.34375 4.402344-2.566407l178.402343-178.410156c17.546875-17.585937 17.546875-46.054687 0-63.640625zm-220.257812 184.90625 146.011718-146.015625 47.089844 47.089844-146.015625 146.015625zm-9.40625 18.875 37.621094 37.625-52.039063 14.417969zm227.257812-142.546875-10.605468 10.605469-47.09375-47.09375 10.609374-10.605469c9.761719-9.761719 25.589844-9.761719 35.351563 0l11.738281 11.734375c9.746094 9.773438 9.746094 25.589844 0 35.359375zm0 0"/></symbol> -->
	<symbol id="edit" viewBox="0 0 512 512" xmlns="http://www.w3.org/2000/svg">
		<path d="m100 113c0-11.046875 8.953125-20 20-20h272c11.046875 0 20 8.953125 20 20s-8.953125 20-20 20h-272c-11.046875 0-20-8.953125-20-20zm312 80c0-11.046875-8.953125-20-20-20h-272c-11.046875 0-20 8.953125-20 20s8.953125 20 20 20h272c11.046875 0 20-8.953125 20-20zm-292 60c-11.046875 0-20 8.953125-20 20s8.953125 20 20 20h92c11.046875 0 20-8.953125 20-20s-8.953125-20-20-20zm374.441406 156.589844c23.378906 23.378906 23.378906 61.441406-.015625 84.835937-11.695312 11.695313-27.0625 17.546875-42.425781 17.546875s-30.730469-5.851562-42.425781-17.546875l-109.367188-109.570312c-2.4375-2.441407-4.199219-5.46875-5.117187-8.792969l-22.363282-80.722656c-1.945312-7.03125.085938-14.5625 5.308594-19.65625 5.21875-5.089844 12.796875-6.941406 19.777344-4.820313l78.726562 23.914063c3.152344.957031 6.019532 2.675781 8.34375 5.007812zm-162.210937-49.273438 73.515625 73.652344 28.289062-28.289062-73.925781-74.089844-39.128906-11.886719zm133.910156 77.542969-3.851563-3.863281-28.285156 28.285156 3.867188 3.875c7.785156 7.785156 20.472656 7.785156 28.269531-.015625 7.800781-7.796875 7.800781-20.484375 0-28.28125zm-34.140625-437.859375h-352c-44.113281 0-80 35.886719-80 80v352c0 44.113281 35.886719 80 80 80h245c11.046875 0 20-8.953125 20-20s-8.953125-20-20-20h-245c-22.054688 0-40-17.945312-40-40v-352c0-22.054688 17.945312-40 40-40h352c22.054688 0 40 17.945312 40 40v246c0 11.046875 8.953125 20 20 20s20-8.953125 20-20v-246c0-44.113281-35.886719-80-80-80zm0 0" />
	</symbol>
	<symbol id="del" xmlns="http://www.w3.org/2000/svg" xmlns:xlink="http://www.w3.org/1999/xlink" viewBox="0 0 482.428 482.429">
		<g>
			<g>
				<path d="M381.163,57.799h-75.094C302.323,25.316,274.686,0,241.214,0c-33.471,0-61.104,25.315-64.85,57.799h-75.098
			c-30.39,0-55.111,24.728-55.111,55.117v2.828c0,23.223,14.46,43.1,34.83,51.199v260.369c0,30.39,24.724,55.117,55.112,55.117
			h210.236c30.389,0,55.111-24.729,55.111-55.117V166.944c20.369-8.1,34.83-27.977,34.83-51.199v-2.828
			C436.274,82.527,411.551,57.799,381.163,57.799z M241.214,26.139c19.037,0,34.927,13.645,38.443,31.66h-76.879
			C206.293,39.783,222.184,26.139,241.214,26.139z M375.305,427.312c0,15.978-13,28.979-28.973,28.979H136.096
			c-15.973,0-28.973-13.002-28.973-28.979V170.861h268.182V427.312z M410.135,115.744c0,15.978-13,28.979-28.973,28.979H101.266
			c-15.973,0-28.973-13.001-28.973-28.979v-2.828c0-15.978,13-28.979,28.973-28.979h279.897c15.973,0,28.973,13.001,28.973,28.979
			V115.744z" />
				<path d="M171.144,422.863c7.218,0,13.069-5.853,13.069-13.068V262.641c0-7.216-5.852-13.07-13.069-13.07
			c-7.217,0-13.069,5.854-13.069,13.07v147.154C158.074,417.012,163.926,422.863,171.144,422.863z" />
				<path d="M241.214,422.863c7.218,0,13.07-5.853,13.07-13.068V262.641c0-7.216-5.854-13.07-13.07-13.07
			c-7.217,0-13.069,5.854-13.069,13.07v147.154C228.145,417.012,233.996,422.863,241.214,422.863z" />
				<path d="M311.284,422.863c7.217,0,13.068-5.853,13.068-13.068V262.641c0-7.216-5.852-13.07-13.068-13.07
			c-7.219,0-13.07,5.854-13.07,13.07v147.154C298.213,417.012,304.067,422.863,311.284,422.863z" />
			</g>
		</g>
	</symbol>
	<symbol id="add" xmlns="http://www.w3.org/2000/svg" viewBox="0 0 400 400">
		<g>
			<g>
				<path d="M199.995,0C89.716,0,0,89.72,0,200c0,110.279,89.716,200,199.995,200C310.277,400,400,310.279,400,200
			C400,89.72,310.277,0,199.995,0z M199.995,373.77C104.182,373.77,26.23,295.816,26.23,200c0-95.817,77.951-173.77,173.765-173.77
			c95.817,0,173.772,77.953,173.772,173.77C373.769,295.816,295.812,373.77,199.995,373.77z" />
				<path d="M279.478,186.884h-66.363V120.52c0-7.243-5.872-13.115-13.115-13.115s-13.115,5.873-13.115,13.115v66.368h-66.361
			c-7.242,0-13.115,5.873-13.115,13.115c0,7.243,5.873,13.115,13.115,13.115h66.358v66.362c0,7.242,5.872,13.114,13.115,13.114
			c7.242,0,13.115-5.872,13.115-13.114v-66.365h66.367c7.241,0,13.114-5.873,13.114-13.115
			C292.593,192.757,286.72,186.884,279.478,186.884z" />
			</g>
		</g>
	</symbol>
	<symbol id="save-ok" xmlns="http://www.w3.org/2000/svg" viewBox="0 0 240.608 240.608">
		<path d="M208.789,29.972l31.819,31.82L91.763,210.637L0,118.876l31.819-31.82l59.944,59.942L208.789,29.972z" />
	</symbol>
	<symbol id="save" xmlns="http://www.w3.org/2000/svg" viewBox="0 0 512 512">
		<g>
			<g>
				<path d="M506.513,124.12L387.879,5.486c-0.001-0.001-0.003-0.003-0.005-0.004C384.467,2.076,379.697,0,374.634,0
			c-15.018,0-341.6,0-355.902,0C8.387,0,0,8.387,0,18.732v474.537C0,503.613,8.387,512,18.732,512c22.563,0,452.353,0,474.537,0
			c10.345,0,18.732-8.387,18.732-18.732V137.366C512,132.398,510.027,127.634,506.513,124.12z M156.098,37.463h199.805v110.823
			H156.098V37.463z M400.45,474.537h-288.9V316.935h288.9V474.537z M474.537,474.537h-36.623V298.204
			c0-10.345-8.387-18.732-18.732-18.732H92.818c-10.345,0-18.732,8.387-18.732,18.732v176.333H37.463V37.463h81.171v129.555
			c0,10.345,8.387,18.732,18.732,18.732h237.268c10.345,0,18.732-8.387,18.732-18.732V63.954l81.171,81.171V474.537z" />
			</g>
		</g>
		<g>
			<g>
				<path d="M309.514,55.015c-10.345,0-18.732,8.387-18.732,18.732v38.256c0,10.346,8.386,18.732,18.732,18.732
			c10.345,0,18.732-8.387,18.732-18.732V73.747C328.246,63.402,319.859,55.015,309.514,55.015z" />
			</g>
		</g>
	</symbol>
</svg>
